# xmcd
#
# Track frame offsets:
#	150
#	18805
#	34825
#	50477
#	68327
#	83535
#	97197
#	116937
#	134385
#	146827
#
# Disc length: 2438 seconds
#
# Revision: 1
# Processed by: cddbd v1.5.1PL0 Copyright (c) Steve Scherf et al.
# Submitted via: audiograbber 1.82.02
#
DISCID=8509840a
DTITLE=Uncle Carl - Uncle Carl
DYEAR=1997
DGENRE=
TTITLE0=I'm Smokin' Again
TTITLE1=Barber Shop Mass
TTITLE2=No One To Hold
TTITLE3=Peek-A-Boo
TTITLE4=Big Daddy
TTITLE5=I'm Too Tired
TTITLE6=Daffodil
TTITLE7=Old Man Gloom
TTITLE8=God Has Retired
TTITLE9=Holdin' My Baby's Hand
EXTD=
EXTT0=
EXTT1=
EXTT2=
EXTT3=
EXTT4=
EXTT5=
EXTT6=
EXTT7=
EXTT8=
EXTT9=
PLAYORDER=
